<svg xmlns="http://www.w3.org/2000/svg" width="128" height="39" viewBox="0 0 128 39"><path fill="#FFF" d="M26.7 37.1v-14h3.7v10.6h6.2v3.4h-9.9zm18 0h-4l5.2-13.9H51l5.2 13.9h-4l-.8-2.2h-5.9l-.8 2.2zm4.1-9.6c-.2-.5-.3-.9-.4-1.3-.1.4-.3.8-.4 1.3l-1.4 4h3.6l-1.4-4zm16.6-4.4c3.4 0 5.4 1.4 5.4 3.9 0 1.3-.8 2.2-2.1 2.7 2 .5 3 1.7 3 3.4 0 2.5-2.2 4-6.2 4h-5.6v-14h5.5zm-1.8 5.4h2.2c.9 0 1.4-.4 1.4-1.1 0-.8-.7-1.2-1.9-1.2h-1.8v2.3h.1zm0 5.5h2c1.4 0 2.3-.5 2.3-1.4 0-.8-.7-1.3-2-1.3h-2.2V34h-.1zm21.8-7.1c-2.1-.8-3.3-1.1-4.5-1.1-.8 0-1.5.3-1.5.9 0 .6.5.9 3.5 1.9 2.8 1 3.7 2 3.7 4.3 0 2.5-1.9 4.2-5.1 4.2-1.8 0-4.7-.7-6.6-1.9l1.4-2.9c2.1 1.2 3.6 1.6 5 1.6.8 0 1.3-.3 1.3-.9s-.4-.8-3.1-1.6-4-2.3-4-4.5c0-2.4 1.7-4.2 4.9-4.2 1.8 0 3.6.2 6 1.3l-1 2.9zM51.6 16.2L48.8 12l-.4-.6c-.1.2-.3.4-.4.6l-2.8 4.1h-4l4.4-7-4.3-6.9h4.2L48 6.1c.1.2.3.5.4.7.1-.2.3-.4.4-.7l2.6-3.9h4.2l-4.3 6.9 4.4 7h-4.1v.1zm20.7-7.4v-.6l-3.3 8h-2.2l-3.2-8v.5l-.2 7.4h-3.7l.5-13.9h4.2l3.2 7.6c.2.4.3.8.3 1.1.1-.3.2-.6.3-1.1l3.2-7.6h4.2l.5 13.9h-3.7l-.1-7.3zm11.2 7.4h-4l5.2-13.9h5.1L95 16.2h-4l-.8-2.2h-5.9l-.8 2.2zm4.1-9.6c-.2-.5-.3-.9-.4-1.3-.1.4-.3.8-.4 1.3l-1.4 4H89l-1.4-4zm23.2 9.6h-4l-2.8-3.9h-1.9v3.9h-3.7v-14h5.8c3.9 0 6.1 1.9 6.1 5.2 0 2-.9 3.5-2.6 4.2l3.1 4.2v.4zm-6.5-6.8c1.6 0 2.4-.7 2.4-1.9 0-1.3-.9-2-2.4-2h-2.1v4h2.1v-.1zm17.8-3.8v10.6h-3.7V5.6h-4.3V2.2h12.3v3.4h-4.3z"/><path fill="#E41E63" d="M22 2v4h7.3L2 33.6l2.7 3L32 9.1V16h4V2"/></svg>